<?xml version="1.0" standalone="no"?>
<!DOCTYPE svg PUBLIC "-//W3C//DTD SVG 20010904//EN"
 "http://www.w3.org/TR/2001/REC-SVG-20010904/DTD/svg10.dtd">
<svg version="1.0" xmlns="http://www.w3.org/2000/svg"
 width="700.000000pt" height="700.000000pt" viewBox="0 0 700.000000 700.000000"
 preserveAspectRatio="xMidYMid meet">
<metadata>
Created by potrace 1.14, written by Peter Selinger 2001-2017
</metadata>
<g transform="translate(0.000000,700.000000) scale(0.100000,-0.100000)"
fill="#000000" stroke="none">
<path d="M4996 6563 c-1 -1 -71 -5 -156 -8 -85 -3 -175 -8 -200 -10 -25 -2
-103 -7 -175 -11 -71 -4 -146 -8 -165 -9 -19 -1 -98 -6 -175 -10 -77 -4 -162
-9 -190 -11 -552 -33 -2066 -40 -2270 -9 -30 5 -72 9 -180 20 -33 4 -71 8 -85
11 -14 2 -84 4 -155 5 -236 1 -376 -51 -492 -180 -81 -91 -165 -283 -199 -453
-60 -308 -80 -603 -75 -1158 9 -966 6 -1206 -15 -1440 -11 -130 -27 -429 -27
-520 0 -86 13 -362 18 -370 5 -9 15 -225 20 -450 3 -118 8 -264 10 -325 2 -60
7 -184 10 -275 3 -91 8 -183 10 -205 14 -137 19 -164 37 -210 95 -246 272
-405 503 -450 130 -26 185 -31 336 -29 181 2 487 15 684 29 44 3 114 8 155 10
79 5 178 14 220 20 14 2 65 6 113 10 48 3 96 8 105 10 10 2 51 6 92 10 41 3
91 8 110 10 219 24 934 23 1180 0 19 -2 78 -6 130 -9 52 -4 120 -8 150 -11 30
-3 87 -7 125 -9 39 -3 108 -8 155 -12 139 -10 215 -12 650 -19 432 -6 497 -2
630 36 25 7 51 13 58 15 7 1 54 23 105 48 261 130 445 377 500 671 14 72 15
311 3 415 -2 19 -7 89 -11 155 -4 66 -9 136 -12 155 -3 19 -6 213 -8 430 -4
370 -11 660 -20 761 -26 304 -26 994 0 1129 51 261 69 403 68 515 -4 272 -14
696 -18 725 -2 19 -7 58 -11 85 -35 285 -182 547 -384 685 -125 85 -301 152
-480 184 -19 3 -46 8 -59 11 -13 2 -49 7 -80 11 -31 3 -64 8 -74 10 -55 10
-453 25 -461 17z"/>
</g>
</svg>
